# Blender v2.78 (sub 0) OBJ File: 'logo.blend'
# www.blender.org
mtllib logo.mtl
o Cylinder
v 1.046716 4.321938 -1.108550
v 1.546716 4.321938 -1.108550
v 1.046716 4.126847 -1.089332
v 1.546716 4.126847 -1.089332
v 1.046716 3.939254 -1.032432
v 1.546716 3.939254 -1.032432
v 1.046716 3.766367 -0.940017
v 1.546716 3.766367 -0.940017
v 1.046716 3.614831 -0.815658
v 1.546716 3.614831 -0.815658
v 1.046716 3.490468 -0.664123
v 1.546716 3.490468 -0.664123
v 1.046716 3.398058 -0.491233
v 1.546716 3.398058 -0.491233
v 1.046716 3.341152 -0.303641
v 1.546716 3.341152 -0.303641
v 1.046716 3.321937 -0.108550
v 1.546716 3.321937 -0.108550
v 1.046716 3.341152 0.086541
v 1.546716 3.341152 0.086541
v 1.046716 3.398058 0.274133
v 1.546716 3.398058 0.274133
v 1.046716 3.490468 0.447022
v 1.546716 3.490468 0.447022
v 1.046716 3.614830 0.598557
v 1.546716 3.614830 0.598557
v 1.046716 3.766367 0.722916
v 1.546716 3.766367 0.722916
v 1.046716 3.939254 0.815331
v 1.546716 3.939254 0.815331
v 1.046716 4.126847 0.872231
v 1.546716 4.126847 0.872231
v 1.046716 4.321938 0.891450
v 1.546716 4.321938 0.891450
v 1.046716 4.517028 0.872231
v 1.546716 4.517028 0.872231
v 1.046716 4.704621 0.815332
v 1.546716 4.704621 0.815332
v 1.046716 4.877508 0.722917
v 1.546716 4.877508 0.722917
v 1.046716 5.029045 0.598558
v 1.546716 5.029045 0.598558
v 1.046716 5.153407 0.447022
v 1.546716 5.153407 0.447022
v 1.046716 5.245817 0.274133
v 1.546716 5.245817 0.274133
v 1.046716 5.302723 0.086541
v 1.546716 5.302723 0.086541
v 1.046716 5.321937 -0.108550
v 1.546716 5.321937 -0.108550
v 1.046716 5.302722 -0.303641
v 1.546716 5.302722 -0.303641
v 1.046716 5.245817 -0.491233
v 1.546716 5.245816 -0.491233
v 1.046716 5.153407 -0.664123
v 1.546716 5.153407 -0.664123
v 1.046716 5.029043 -0.815658
v 1.546716 5.029043 -0.815658
v 1.046716 4.877507 -0.940017
v 1.546716 4.877507 -0.940017
v 1.046716 4.704619 -1.032432
v 1.546716 4.704619 -1.032432
v 1.046716 4.517026 -1.089339
v 1.546716 4.517026 -1.089339
vt 0.6694 0.4599
vt 0.6937 0.4599
vt 0.6937 0.4357
vt 0.6694 0.4357
vt 0.6448 0.3615
vt 0.6690 0.3615
vt 0.6690 0.3373
vt 0.6448 0.3373
vt 0.7187 0.5338
vt 0.7429 0.5338
vt 0.7429 0.5095
vt 0.7187 0.5095
vt 0.7187 0.5091
vt 0.7429 0.5091
vt 0.7429 0.4849
vt 0.7187 0.4849
vt 0.7187 0.4845
vt 0.7429 0.4845
vt 0.7429 0.4603
vt 0.7187 0.4603
vt 0.7187 0.4599
vt 0.7429 0.4599
vt 0.7429 0.4357
vt 0.7187 0.4357
vt 0.7187 0.4353
vt 0.7429 0.4353
vt 0.7429 0.4111
vt 0.7187 0.4111
vt 0.6940 0.5338
vt 0.7183 0.5338
vt 0.7183 0.5095
vt 0.6940 0.5095
vt 0.6940 0.5091
vt 0.7183 0.5091
vt 0.7183 0.4849
vt 0.6940 0.4849
vt 0.6940 0.4845
vt 0.7183 0.4845
vt 0.7183 0.4603
vt 0.6940 0.4603
vt 0.6940 0.4599
vt 0.7183 0.4599
vt 0.7183 0.4357
vt 0.6940 0.4357
vt 0.6940 0.4353
vt 0.7183 0.4353
vt 0.7183 0.4111
vt 0.6940 0.4111
vt 0.7187 0.4107
vt 0.7429 0.4107
vt 0.7429 0.3865
vt 0.7187 0.3865
vt 0.6940 0.4107
vt 0.7183 0.4107
vt 0.7183 0.3865
vt 0.6940 0.3865
vt 0.6694 0.5338
vt 0.6937 0.5338
vt 0.6937 0.5095
vt 0.6694 0.5095
vt 0.6694 0.5091
vt 0.6937 0.5091
vt 0.6937 0.4849
vt 0.6694 0.4849
vt 0.6694 0.4845
vt 0.6937 0.4845
vt 0.6937 0.4603
vt 0.6694 0.4603
vt 0.6694 0.3615
vt 0.6937 0.3615
vt 0.6937 0.3373
vt 0.6694 0.3373
vt 0.7187 0.3861
vt 0.7429 0.3861
vt 0.7429 0.3619
vt 0.7187 0.3619
vt 0.6694 0.4353
vt 0.6937 0.4353
vt 0.6937 0.4111
vt 0.6694 0.4111
vt 0.6940 0.3861
vt 0.7183 0.3861
vt 0.7183 0.3619
vt 0.6940 0.3619
vt 0.6694 0.4107
vt 0.6937 0.4107
vt 0.6937 0.3865
vt 0.6694 0.3865
vt 0.6694 0.3861
vt 0.6937 0.3861
vt 0.6937 0.3619
vt 0.6694 0.3619
vt 0.6448 0.5338
vt 0.6690 0.5338
vt 0.6690 0.5095
vt 0.6448 0.5095
vt 0.6448 0.5091
vt 0.6690 0.5091
vt 0.6690 0.4849
vt 0.6448 0.4849
vt 0.6448 0.4845
vt 0.6690 0.4845
vt 0.6690 0.4603
vt 0.6448 0.4603
vt 0.6448 0.4599
vt 0.6690 0.4599
vt 0.6690 0.4357
vt 0.6448 0.4357
vt 0.7187 0.3615
vt 0.7429 0.3615
vt 0.7429 0.3373
vt 0.7187 0.3373
vt 0.6448 0.4353
vt 0.6690 0.4353
vt 0.6690 0.4111
vt 0.6448 0.4111
vt 0.6448 0.4107
vt 0.6690 0.4107
vt 0.6690 0.3865
vt 0.6448 0.3865
vt 0.8555 0.3922
vt 0.8697 0.4636
vt 0.8697 0.5364
vt 0.8555 0.6078
vt 0.8276 0.6751
vt 0.7871 0.7356
vt 0.7356 0.7871
vt 0.6751 0.8276
vt 0.6078 0.8555
vt 0.5364 0.8697
vt 0.4636 0.8697
vt 0.3922 0.8555
vt 0.3249 0.8276
vt 0.2644 0.7871
vt 0.2129 0.7356
vt 0.1724 0.6751
vt 0.1445 0.6078
vt 0.1303 0.5364
vt 0.1303 0.4636
vt 0.1445 0.3922
vt 0.1724 0.3249
vt 0.2129 0.2644
vt 0.2644 0.2129
vt 0.3249 0.1724
vt 0.3922 0.1445
vt 0.4636 0.1303
vt 0.5364 0.1303
vt 0.6078 0.1445
vt 0.6751 0.1724
vt 0.7356 0.2129
vt 0.7871 0.2644
vt 0.8276 0.3249
vt 0.6940 0.3615
vt 0.7183 0.3615
vt 0.7183 0.3373
vt 0.6940 0.3373
vt 0.6448 0.3861
vt 0.6690 0.3861
vt 0.6690 0.3619
vt 0.6448 0.3619
vt 0.8413 0.3815
vt 0.8413 0.3911
vt 0.8394 0.4006
vt 0.8357 0.4095
vt 0.8304 0.4175
vt 0.8235 0.4244
vt 0.8155 0.4297
vt 0.8066 0.4334
vt 0.7971 0.4353
vt 0.7875 0.4353
vt 0.7780 0.4334
vt 0.7691 0.4297
vt 0.7610 0.4244
vt 0.7542 0.4175
vt 0.7488 0.4095
vt 0.7452 0.4006
vt 0.7433 0.3911
vt 0.7433 0.3815
vt 0.7452 0.3720
vt 0.7488 0.3631
vt 0.7542 0.3550
vt 0.7610 0.3482
vt 0.7691 0.3429
vt 0.7780 0.3392
vt 0.7875 0.3373
vt 0.7971 0.3373
vt 0.8066 0.3392
vt 0.8155 0.3428
vt 0.8235 0.3482
vt 0.8304 0.3550
vt 0.8357 0.3631
vt 0.8394 0.3720
vn -0.0000 -0.0980 -0.9952
vn -0.0000 -0.2903 -0.9569
vn 0.0000 -0.4714 -0.8819
vn 0.0000 -0.6344 -0.7730
vn 0.0000 -0.7730 -0.6344
vn 0.0000 -0.8819 -0.4714
vn 0.0000 -0.9569 -0.2903
vn 0.0000 -0.9952 -0.0980
vn 0.0000 -0.9952 0.0980
vn -0.0000 -0.9569 0.2903
vn -0.0000 -0.8819 0.4714
vn 0.0000 -0.7730 0.6344
vn 0.0000 -0.6344 0.7730
vn 0.0000 -0.4714 0.8819
vn -0.0000 -0.2903 0.9569
vn 0.0000 -0.0980 0.9952
vn 0.0000 0.0980 0.9952
vn 0.0000 0.2903 0.9569
vn 0.0000 0.4714 0.8819
vn 0.0000 0.6344 0.7730
vn 0.0000 0.7730 0.6344
vn -0.0000 0.8819 0.4714
vn 0.0000 0.9569 0.2903
vn 0.0000 0.9952 0.0980
vn 0.0000 0.9952 -0.0980
vn 0.0000 0.9569 -0.2903
vn 0.0000 0.8819 -0.4714
vn 0.0000 0.7730 -0.6344
vn 0.0000 0.6344 -0.7730
vn 0.0000 0.4714 -0.8819
vn 1.0000 -0.0000 -0.0000
vn 0.0000 0.2903 -0.9569
vn 0.0000 0.0980 -0.9952
vn -1.0000 0.0000 -0.0000
usemtl A_Material
s off
f 1/1/1 2/2/1 4/3/1 3/4/1
f 3/5/2 4/6/2 6/7/2 5/8/2
f 5/9/3 6/10/3 8/11/3 7/12/3
f 7/13/4 8/14/4 10/15/4 9/16/4
f 9/17/5 10/18/5 12/19/5 11/20/5
f 11/21/6 12/22/6 14/23/6 13/24/6
f 13/25/7 14/26/7 16/27/7 15/28/7
f 15/29/8 16/30/8 18/31/8 17/32/8
f 17/33/9 18/34/9 20/35/9 19/36/9
f 19/37/10 20/38/10 22/39/10 21/40/10
f 21/41/11 22/42/11 24/43/11 23/44/11
f 23/45/12 24/46/12 26/47/12 25/48/12
f 25/49/13 26/50/13 28/51/13 27/52/13
f 27/53/14 28/54/14 30/55/14 29/56/14
f 29/57/15 30/58/15 32/59/15 31/60/15
f 31/61/16 32/62/16 34/63/16 33/64/16
f 33/65/17 34/66/17 36/67/17 35/68/17
f 35/69/18 36/70/18 38/71/18 37/72/18
f 37/73/19 38/74/19 40/75/19 39/76/19
f 39/77/20 40/78/20 42/79/20 41/80/20
f 41/81/21 42/82/21 44/83/21 43/84/21
f 43/85/22 44/86/22 46/87/22 45/88/22
f 45/89/23 46/90/23 48/91/23 47/92/23
f 47/93/24 48/94/24 50/95/24 49/96/24
f 49/97/25 50/98/25 52/99/25 51/100/25
f 51/101/26 52/102/26 54/103/26 53/104/26
f 53/105/27 54/106/27 56/107/27 55/108/27
f 55/109/28 56/110/28 58/111/28 57/112/28
f 57/113/29 58/114/29 60/115/29 59/116/29
f 59/117/30 60/118/30 62/119/30 61/120/30
f 4/121/31 2/122/31 64/123/31 62/124/31 60/125/31 58/126/31 56/127/31 54/128/31 52/129/31 50/130/31 48/131/31 46/132/31 44/133/31 42/134/31 40/135/31 38/136/31 36/137/31 34/138/31 32/139/31 30/140/31 28/141/31 26/142/31 24/143/31 22/144/31 20/145/31 18/146/31 16/147/31 14/148/31 12/149/31 10/150/31 8/151/31 6/152/31
f 61/153/32 62/154/32 64/155/32 63/156/32
f 63/157/33 64/158/33 2/159/33 1/160/33
f 1/161/34 3/162/34 5/163/34 7/164/34 9/165/34 11/166/34 13/167/34 15/168/34 17/169/34 19/170/34 21/171/34 23/172/34 25/173/34 27/174/34 29/175/34 31/176/34 33/177/34 35/178/34 37/179/34 39/180/34 41/181/34 43/182/34 45/183/34 47/184/34 49/185/34 51/186/34 53/187/34 55/188/34 57/189/34 59/190/34 61/191/34 63/192/34
